# xmcd
#
# Track frame offsets: 
#        150
#        18470
#        36610
#        53322
#        74800
#        86745
#        114482
#        135100
#        156897
#        188542
#        217620
#        237640
#        258422
#
# Disc length: 3684 seconds
#
# Revision: 5
# Processed by: cddbd v1.5.2PL0 Copyright (c) Steve Scherf et al.
# Submitted via: ExactAudioCopy v0.99pb4
#
DISCID=ad0e620d
DTITLE=Grand Drive - Grand Drive
DYEAR=2003
DGENRE=Alt. Rock
TTITLE0=Firefly
TTITLE1=A Little Like You
TTITLE2=You And I
TTITLE3=Track 40
TTITLE4=Needle In The Groove
TTITLE5=No Doubt About It
TTITLE6=Wheels
TTITLE7=Sleepy
TTITLE8=True Love And High Adventure
TTITLE9=Nobody's Song In Particular
TTITLE10=A Little Numb
TTITLE11=Tell It Like It Is
TTITLE12=Jukebox
EXTD=YEAR: 2003
EXTT0=
EXTT1=
EXTT2=
EXTT3=
EXTT4=
EXTT5=
EXTT6=
EXTT7=
EXTT8=
EXTT9=
EXTT10=
EXTT11=
EXTT12=
PLAYORDER=
